<svg version="1.0" xmlns="http://www.w3.org/2000/svg"
     width="512.000000pt" height="512.000000pt" viewBox="0 0 512.000000 512.000000"
     preserveAspectRatio="xMidYMid meet">
<metadata>
    Created by potrace 1.16, written by Peter Selinger 2001-2019
</metadata>
<g transform="translate(0.000000,512.000000) scale(0.100000,-0.100000)"
   fill="#000000" stroke="none">
    <path d="M644 5109 c-93 -27 -187 -129 -210 -227 -20 -84 -20 -4560 0 -4644
23 -101 118 -201 214 -228 51 -14 3773 -14 3824 0 105 30 199 136 218 248 8
49 11 481 8 1612 l-3 1545 -28 89 c-15 50 -49 131 -74 180 l-46 91 -601 601
-601 601 -95 46 c-52 25 -124 56 -160 69 l-65 23 -1175 2 c-690 1 -1188 -2
-1206 -8z m1916 -1141 c0 -461 4 -736 10 -760 16 -55 69 -128 123 -167 86 -60
89 -61 865 -61 l702 0 0 -1275 0 -1275 -1700 0 -1700 0 0 2130 0 2130 850 0
850 0 0 -722z m1063 113 c301 -300 557 -560 567 -576 10 -17 23 -43 29 -58
l11 -27 -620 0 -620 0 0 619 0 619 43 -16 c34 -12 150 -123 590 -561z"/>
    <path d="M1309 2531 l-29 -29 0 -152 c0 -85 5 -160 10 -171 28 -51 -23 -49
1270 -49 1293 0 1242 -2 1270 49 5 11 10 86 10 171 l0 152 -29 29 -29 29
-1222 0 -1222 0 -29 -29z"/>
    <path d="M1328 1694 c-15 -8 -32 -23 -38 -34 -5 -10 -10 -86 -10 -170 l0 -152
29 -29 29 -29 1222 0 1222 0 29 29 29 29 0 152 c0 85 -5 160 -10 171 -28 51
23 49 -1272 49 -1042 -1 -1207 -3 -1230 -16z"/>
</g>
</svg>
